<?xml version="1.0" encoding="utf-8"?>
<!-- Generator: Adobe Illustrator 21.1.0, SVG Export Plug-In . SVG Version: 6.00 Build 0)  -->
<svg version="1.1" xmlns="http://www.w3.org/2000/svg" xmlns:xlink="http://www.w3.org/1999/xlink" x="0px" y="0px"
	 viewBox="0 0 743.504 697.263" enable-background="new 0 0 743.504 697.263" xml:space="preserve">
<g id="Layer_2">
</g>
<g id="Layer_3">
	<g>
		<polygon fill="#BBADA0" points="371.752,569.826 228.659,592.036 327.695,697.263 371.752,697.263 415.809,697.263 
			514.846,592.036 		"/>
		<polyline fill="#D2C1B5" points="228.659,592.036 318.957,661.216 327.695,592.036 228.659,592.036 		"/>
		<polygon fill="#6B3E20" points="316.044,201.715 35.682,0 0,107.047 30.585,221.376 15.292,233.028 37.867,250.505 
			21.118,263.613 43.693,284.731 30.585,294.198 62.626,329.88 211.181,286.187 		"/>
		<polygon fill="#CE7737" points="35.682,0 276.721,69.18 316.044,201.715 		"/>
		<polygon fill="#E1863C" points="211.181,286.187 175.863,367.747 242.495,501.01 20.39,474.794 62.626,329.88 		"/>
		<polygon fill="#BA622E" points="242.495,501.01 228.659,592.036 148.405,489.904 		"/>
		<polygon fill="#D07737" points="20.39,474.794 148.405,489.904 228.659,592.036 72.821,618.98 		"/>
		<polygon fill="#D07737" points="242.495,501.01 327.695,592.036 228.659,592.036 		"/>
		<polygon fill="#D07638" points="175.863,367.747 242.495,437.655 242.495,501.01 		"/>
		<polygon fill="#D07638" points="316.044,201.715 331.336,378.67 175.863,367.747 211.181,286.187 		"/>
		<polygon fill="#BA622E" points="175.863,367.747 331.336,378.67 318.957,465.327 292.013,409.255 242.495,437.655 		"/>
		<polygon fill="#293445" points="242.495,437.655 292.013,409.255 318.957,465.327 		"/>
		<polygon fill="#E1863D" points="242.495,437.655 318.957,465.327 341.531,586.211 327.695,592.036 242.495,501.01 		"/>
		<polygon fill="#CD7636" points="318.957,465.327 331.336,378.67 341.531,440.932 341.531,586.211 		"/>
		<polyline fill="#D2C1B5" points="514.846,592.036 424.548,661.216 415.809,592.036 514.846,592.036 		"/>
		<polygon fill="#293445" points="415.809,592.036 401.973,586.211 371.752,586.211 341.531,586.211 327.695,592.036 
			318.957,661.216 371.752,661.216 424.548,661.216 		"/>
		<polygon fill="#6B3E20" points="427.46,201.715 707.822,0 743.504,107.047 712.919,221.376 728.212,233.028 705.637,250.505 
			722.386,263.613 699.812,284.731 712.919,294.198 680.878,329.88 532.323,286.187 		"/>
		<polygon fill="#CE7737" points="707.822,0 466.784,69.18 427.46,201.715 		"/>
		<polygon fill="#E1863C" points="532.323,286.187 567.641,367.747 501.01,501.01 723.114,474.794 680.878,329.88 		"/>
		<polygon fill="#BA622E" points="501.01,501.01 514.846,592.036 595.099,489.904 		"/>
		<polygon fill="#D07737" points="723.114,474.794 595.099,489.904 514.846,592.036 670.683,618.98 		"/>
		<polygon fill="#D07737" points="501.01,501.01 415.809,592.036 514.846,592.036 		"/>
		<polygon fill="#D07638" points="567.641,367.747 501.01,437.655 501.01,501.01 		"/>
		<polygon fill="#D07638" points="427.46,201.715 412.168,378.67 567.641,367.747 532.323,286.187 		"/>
		<polygon fill="#BA622E" points="567.641,367.747 412.168,378.67 424.548,465.327 451.491,409.255 501.01,437.655 		"/>
		<polygon fill="#293445" points="501.01,437.655 451.491,409.255 424.548,465.327 		"/>
		<polygon fill="#E1863D" points="501.01,437.655 424.548,465.327 401.973,586.211 415.809,592.036 501.01,501.01 		"/>
		<polygon fill="#CD7636" points="424.548,465.327 412.168,378.67 401.973,440.932 401.973,586.211 		"/>
		<polygon fill="#E1863C" points="371.752,69.18 276.721,69.18 316.044,201.715 331.336,378.67 341.531,440.932 341.531,586.211 
			371.752,586.211 401.973,586.211 401.973,440.932 412.168,378.67 427.46,201.715 466.784,69.18 		"/>
	</g>
</g>
<g id="Layer_1">
</g>
</svg>
